<?xml version="1.0" standalone="no"?>
<!DOCTYPE svg PUBLIC "-//W3C//DTD SVG 20010904//EN"
 "http://www.w3.org/TR/2001/REC-SVG-20010904/DTD/svg10.dtd">
<svg version="1.0" xmlns="http://www.w3.org/2000/svg"
 width="260.000000pt" height="260.000000pt" viewBox="0 0 260.000000 260.000000"
 preserveAspectRatio="xMidYMid meet">
<metadata>
Created by potrace 1.14, written by Peter Selinger 2001-2017
</metadata>
<g transform="translate(0.000000,260.000000) scale(0.100000,-0.100000)"
fill="#000000" stroke="none">
<path d="M0 1300 l0 -1300 1300 0 1300 0 0 1300 0 1300 -1300 0 -1300 0 0
-1300z m1415 1195 c66 -8 145 -22 175 -30 106 -31 126 -35 202 -35 85 0 91 -5
88 -73 -3 -52 -1 -58 18 -56 9 1 41 1 70 0 l52 -1 0 -57 c0 -32 4 -63 8 -70 4
-7 37 -13 77 -15 l70 -3 3 -80 c2 -48 8 -82 15 -87 7 -4 37 -8 68 -8 43 0 58
-4 63 -16 3 -9 6 -60 6 -115 l0 -99 80 0 80 0 0 -600 c0 -659 1 -643 -60 -675
-40 -21 -71 -19 -110 8 -50 34 -62 80 -57 224 2 67 0 128 -4 134 -5 9 -36 10
-115 6 -59 -4 -109 -9 -112 -12 -3 -2 -6 -35 -7 -72 -1 -37 -6 -125 -10 -195
l-8 -128 -129 0 -128 0 0 -99 c0 -116 -15 -162 -63 -191 -39 -24 -80 -25 -116
-4 -52 31 -56 46 -61 239 l-5 180 -89 0 c-69 0 -90 -3 -96 -15 -4 -8 -14 -28
-21 -44 -33 -71 -139 -88 -195 -32 -25 25 -34 58 -34 120 l0 66 -125 0 -125 0
0 -130 c0 -98 -4 -139 -15 -160 -27 -51 -99 -75 -148 -48 -58 31 -67 57 -67
208 l0 131 -117 -3 -118 -3 -5 -148 -5 -149 -30 -24 c-21 -17 -43 -24 -73 -24
-59 0 -107 46 -117 111 -3 24 -5 332 -3 684 l3 640 75 5 75 5 3 133 c2 117 5
132 20 133 9 0 42 1 72 2 l55 2 3 60 c2 32 8 65 14 72 7 8 35 13 79 13 l69 0
0 65 0 64 73 3 72 3 5 55 5 55 70 6 c39 3 97 15 130 27 81 27 104 32 215 47
127 17 118 17 255 0z"/>
<path d="M946 1919 c-51 -40 -56 -63 -56 -264 0 -200 7 -238 51 -269 51 -35
121 -10 155 57 13 25 16 66 17 218 0 176 -1 189 -22 223 -13 20 -31 41 -41 46
-30 16 -75 11 -104 -11z"/>
<path d="M1542 1915 c-49 -41 -54 -64 -50 -273 3 -212 8 -228 78 -264 28 -14
38 -15 63 -5 17 7 40 25 51 41 19 25 21 43 24 226 3 185 2 201 -18 240 -32 63
-96 79 -148 35z"/>
<path d="M1217 1247 c-80 -74 -74 -245 10 -323 39 -36 102 -33 147 6 42 38 60
86 59 165 -1 152 -125 239 -216 152z"/>
</g>
</svg>
